<?xml version="1.0" encoding="UTF-8"?>
<svg version="1.1" xmlns="http://www.w3.org/2000/svg" width="48" height="48">
<path d="M0 0 C5.94 0 11.88 0 18 0 C23 5 23 5 23.5234375 7.3515625 C23.47445312 8.10179687 23.42546875 8.85203125 23.375 9.625 C23.34148438 10.38039063 23.30796875 11.13578125 23.2734375 11.9140625 C23 14 23 14 22 17 C22.66 17 23.32 17 24 17 C26.18210927 20.27316391 26.34824318 21.54220719 26.4375 25.375 C26.47746094 26.31085937 26.51742187 27.24671875 26.55859375 28.2109375 C25.73488299 32.32373111 24.45457025 33.62123265 21 36 C17.36747988 36.59628934 13.85570725 36.47140034 10.1875 36.3125 C6.825625 36.209375 3.46375 36.10625 0 36 C0 24.12 0 12.24 0 0 Z M4 4 C4 7.63 4 11.26 4 15 C6.35125 15.061875 6.35125 15.061875 8.75 15.125 C9.63171875 15.14820313 10.5134375 15.17140625 11.421875 15.1953125 C14.1455726 14.98897177 15.71454965 14.46847941 18 13 C19.16378519 10.50617459 19.14393398 9.41980744 18.25 6.8125 C17.04890402 4.68217062 17.04890402 4.68217062 14 4 C12.27204648 3.93197033 10.54164635 3.91504355 8.8125 3.9375 C6.4303125 3.9684375 6.4303125 3.9684375 4 4 Z M4 19 C4 23.29 4 27.58 4 32 C6.8153125 32.0928125 6.8153125 32.0928125 9.6875 32.1875 C11.27111328 32.23970703 11.27111328 32.23970703 12.88671875 32.29296875 C16.38852557 31.96343862 18.19457486 31.07753105 21 29 C22.16666667 27.16666667 22.16666667 27.16666667 22 25 C20.84425989 22.26816301 20.84425989 22.26816301 19 20 C14.09931037 18.36643679 9.14261524 18.94470306 4 19 Z " fill="#AC4AD5" transform="translate(11,6)"/>
</svg>
